<svg width="16" height="22" viewBox="0 0 16 22" fill="none" xmlns="http://www.w3.org/2000/svg">
<path d="M0 21.2815C0 19.15 0.842855 17.1057 2.34315 15.5985C3.84344 14.0913 5.87827 13.2446 8 13.2446C10.1217 13.2446 12.1566 14.0913 13.6569 15.5985C15.1571 17.1057 16 19.15 16 21.2815H14C14 19.6829 13.3679 18.1497 12.2426 17.0193C11.1174 15.8889 9.5913 15.2538 8 15.2538C6.4087 15.2538 4.88258 15.8889 3.75736 17.0193C2.63214 18.1497 2 19.6829 2 21.2815H0ZM8 12.24C4.685 12.24 2 9.54256 2 6.21226C2 2.88196 4.685 0.18457 8 0.18457C11.315 0.18457 14 2.88196 14 6.21226C14 9.54256 11.315 12.24 8 12.24ZM8 10.2307C10.21 10.2307 12 8.43246 12 6.21226C12 3.99206 10.21 2.1938 8 2.1938C5.79 2.1938 4 3.99206 4 6.21226C4 8.43246 5.79 10.2307 8 10.2307Z" fill="#122947"/>
</svg>
