<svg width="138" height="30" viewBox="0 0 138 26" fill="none" xmlns="http://www.w3.org/2000/svg">
<path d="M26.2372 22.8378V25.6486H0V0.702702H25.7473V3.51351H4.89906V11.5946H23.0256V14.2297H4.89906V22.8378H26.2372Z" fill="#122947"/>
<path d="M46.7843 26C44.5707 26 42.5566 25.6486 40.7422 24.9459C38.9277 24.2432 37.4943 23.3297 36.4419 22.2054V25.6486H32.196V0H36.9862V10.9622C38.1838 9.76757 39.6535 8.80721 41.3954 8.08108C43.1373 7.35495 45.1695 6.99189 47.492 6.99189C49.4516 6.99189 51.2116 7.26126 52.7721 7.8C54.3325 8.31531 55.6571 9.02973 56.7458 9.94324C57.8707 10.8333 58.7235 11.8523 59.3042 13C59.9211 14.1243 60.2295 15.3072 60.2295 16.5486C60.2295 17.8369 59.8848 19.055 59.1953 20.2027C58.5421 21.327 57.5986 22.3342 56.3647 23.2243C55.1309 24.091 53.6975 24.7703 52.0644 25.2622C50.4677 25.7541 48.7077 26 46.7843 26ZM45.5868 23.3297C47.0021 23.3297 48.3085 23.1423 49.506 22.7676C50.7036 22.3928 51.7378 21.8892 52.6088 21.2568C53.4797 20.6243 54.1511 19.8982 54.6228 19.0784C55.0946 18.2586 55.3305 17.4153 55.3305 16.5486C55.3305 15.3541 54.9313 14.2297 54.1329 13.1757C53.3708 12.1216 52.2822 11.2784 50.8669 10.6459C49.4879 9.99009 47.873 9.66216 46.0223 9.66216C44.6796 9.66216 43.4276 9.86126 42.2663 10.2595C41.105 10.6577 40.0708 11.1847 39.1636 11.8405C38.2926 12.473 37.5668 13.1757 36.9862 13.9486V19.2541C37.1677 19.8396 37.5487 20.3784 38.1293 20.8703C38.71 21.3622 39.4176 21.7955 40.2523 22.1703C41.0869 22.5216 41.9578 22.8027 42.8651 23.0135C43.8086 23.2243 44.7158 23.3297 45.5868 23.3297Z" fill="#122947"/>
<path d="M66.3946 25.6486V0.702702H71.2937V22.8378H92.8495V25.6486H66.3946Z" fill="#122947"/>
<path d="M97.4212 25.6486V7.30811H102.211V25.6486H97.4212ZM97.4212 3.86487V0H102.211V3.86487H97.4212Z" fill="#122947"/>
<path d="M124.555 26C122.341 26 120.327 25.6486 118.513 24.9459C116.698 24.2432 115.265 23.3297 114.212 22.2054V25.6486H109.966V0H114.757V10.9622C115.954 9.76757 117.424 8.80721 119.166 8.08108C120.908 7.35495 122.94 6.99189 125.262 6.99189C127.222 6.99189 128.982 7.26126 130.543 7.8C132.103 8.31531 133.428 9.02973 134.516 9.94324C135.641 10.8333 136.494 11.8523 137.075 13C137.692 14.1243 138 15.3072 138 16.5486C138 17.8369 137.655 19.055 136.966 20.2027C136.313 21.327 135.369 22.3342 134.135 23.2243C132.901 24.091 131.468 24.7703 129.835 25.2622C128.238 25.7541 126.478 26 124.555 26ZM123.357 23.3297C124.773 23.3297 126.079 23.1423 127.277 22.7676C128.474 22.3928 129.508 21.8892 130.379 21.2568C131.25 20.6243 131.922 19.8982 132.393 19.0784C132.865 18.2586 133.101 17.4153 133.101 16.5486C133.101 15.3541 132.702 14.2297 131.903 13.1757C131.141 12.1216 130.053 11.2784 128.637 10.6459C127.258 9.99009 125.643 9.66216 123.793 9.66216C122.45 9.66216 121.198 9.86126 120.037 10.2595C118.876 10.6577 117.841 11.1847 116.934 11.8405C116.063 12.473 115.337 13.1757 114.757 13.9486V19.2541C114.938 19.8396 115.319 20.3784 115.9 20.8703C116.48 21.3622 117.188 21.7955 118.023 22.1703C118.857 22.5216 119.728 22.8027 120.636 23.0135C121.579 23.2243 122.486 23.3297 123.357 23.3297Z" fill="#122947"/>
</svg>
